<svg xmlns="http://www.w3.org/2000/svg" viewBox="0 0 48 48" role="img" aria-label="备案图标">
  <defs>
    <linearGradient id="gold" x1="0" x2="1" y1="0" y2="1">
      <stop offset="0" stop-color="#ffd76a"/>
      <stop offset="1" stop-color="#b87918"/>
    </linearGradient>
  </defs>
  <path fill="url(#gold)" d="M24 3 8 8v12c0 10.8 6.9 20.5 16 24 9.1-3.5 16-13.2 16-24V8L24 3Z"/>
  <path fill="#d71920" d="M24 7.6 12 11.4v9.1c0 8.2 5.1 15.8 12 18.9 6.9-3.1 12-10.7 12-18.9v-9.1L24 7.6Z"/>
  <circle cx="24" cy="19.5" r="6.5" fill="#ffd76a"/>
  <path fill="#005bbb" d="M18 28.5h12v7.2c-1.8 1.4-3.8 2.6-6 3.6-2.2-1-4.2-2.2-6-3.6v-7.2Z"/>
  <path fill="#fff4b8" d="M16 25.8h16v3H16zM21.7 14.4h4.6v9.7h-4.6zM18.7 17.1h10.6v3H18.7z"/>
  <path fill="none" stroke="#7a3900" stroke-width="1.8" d="M24 3 8 8v12c0 10.8 6.9 20.5 16 24 9.1-3.5 16-13.2 16-24V8L24 3Z"/>
</svg>
